<?xml version="1.0" standalone="no"?>
<!DOCTYPE svg PUBLIC "-//W3C//DTD SVG 20010904//EN"
 "http://www.w3.org/TR/2001/REC-SVG-20010904/DTD/svg10.dtd">
<svg version="1.0" xmlns="http://www.w3.org/2000/svg"
 width="380.000000pt" height="380.000000pt" viewBox="0 0 380.000000 380.000000"
 preserveAspectRatio="xMidYMid meet">
<metadata>
Created by potrace 1.14, written by Peter Selinger 2001-2017
</metadata>
<g transform="translate(0.000000,380.000000) scale(0.100000,-0.100000)"
fill="#000000" stroke="none">
<path d="M1045 3786 c-11 -7 -30 -17 -43 -21 -56 -17 -334 -189 -388 -240 -6
-5 -32 -28 -58 -49 -67 -56 -192 -183 -255 -259 -111 -136 -174 -234 -267
-419 l-34 -66 0 -827 0 -827 57 -111 c31 -62 59 -114 62 -117 3 -3 15 -21 25
-40 11 -19 24 -39 28 -45 4 -5 29 -39 55 -75 49 -68 133 -169 171 -206 12 -12
22 -25 22 -30 0 -5 -95 -38 -210 -73 l-210 -64 0 -158 0 -159 1900 0 1900 0 0
235 0 235 -27 0 c-45 1 -314 65 -314 75 0 6 21 36 46 67 79 97 173 245 235
370 l60 119 0 803 0 803 -49 101 c-48 98 -49 101 -37 144 6 23 11 62 10 86 -1
38 -8 50 -50 94 -57 58 -99 87 -174 119 -39 16 -80 47 -141 108 -166 166 -337
290 -536 390 l-103 51 -828 0 c-683 0 -831 -2 -847 -14z"/>
</g>
</svg>
