<?xml version="1.0" encoding="utf-8"?>
<!-- Generator: Adobe Illustrator 15.1.0, SVG Export Plug-In . SVG Version: 6.00 Build 0)  -->
<!DOCTYPE svg PUBLIC "-//W3C//DTD SVG 1.1//EN" "http://www.w3.org/Graphics/SVG/1.1/DTD/svg11.dtd" [
	<!ENTITY ns_extend "http://ns.adobe.com/Extensibility/1.0/">
	<!ENTITY ns_ai "http://ns.adobe.com/AdobeIllustrator/10.0/">
	<!ENTITY ns_graphs "http://ns.adobe.com/Graphs/1.0/">
	<!ENTITY ns_vars "http://ns.adobe.com/Variables/1.0/">
	<!ENTITY ns_imrep "http://ns.adobe.com/ImageReplacement/1.0/">
	<!ENTITY ns_sfw "http://ns.adobe.com/SaveForWeb/1.0/">
	<!ENTITY ns_custom "http://ns.adobe.com/GenericCustomNamespace/1.0/">
	<!ENTITY ns_adobe_xpath "http://ns.adobe.com/XPath/1.0/">
]>
<svg version="1.1" id="Layer_1" xmlns:x="&ns_extend;" xmlns:i="&ns_ai;" xmlns:graph="&ns_graphs;"
	 xmlns="http://www.w3.org/2000/svg" xmlns:xlink="http://www.w3.org/1999/xlink" x="0px" y="0px" width="512px" height="512px"
	 viewBox="0 0 512 512" enable-background="new 0 0 512 512" xml:space="preserve">
	<g>
		<path fill="#ed6d43" d="M256,0C114.614,0,0,114.62,0,256c0,141.382,114.614,256,256,256c141.385,0,256-114.618,256-256
			C512,114.62,397.385,0,256,0z M256,496C123.451,496,16,388.548,16,256C16,123.456,123.451,16,256,16s240,107.456,240,240
			C496,388.548,388.549,496,256,496z"/>
		<path fill="#ed6d43" d="M205.619,384.531c-2.074,0-4.147-0.802-5.714-2.399c-3.093-3.154-3.042-8.221,0.112-11.313l116.26-113.959
			l-116.94-114.615c-3.155-3.091-3.206-8.156-0.114-11.313c3.094-3.152,8.158-3.206,11.313-0.112l122.77,120.328
			c1.535,1.504,2.4,3.566,2.4,5.713c0,2.149-0.864,4.212-2.399,5.713L211.219,382.244
			C209.661,383.771,207.639,384.531,205.619,384.531z"/>
	</g>
</svg>